<?xml version="1.0" encoding="utf-8"?>
<svg viewBox="-45.106 0 583.466 499.238" xmlns="http://www.w3.org/2000/svg" xmlns:bx="https://boxy-svg.com">
  <defs>
    <bx:guide x="-204.69508458756334" y="214.95139881524557" angle="90"/>
    <bx:guide x="-33.60445418413235" y="115.49190502991121" angle="90"/>
    <bx:guide x="522.0650002197433" y="26.214678029808013" angle="90"/>
    <bx:guide x="36.054022884416284" y="315.3294889866743" angle="90"/>
    <bx:guide x="35.667946760762774" y="214.58831162799555" angle="0"/>
    <bx:guide x="469.6960717492033" y="214.95194146539012" angle="0"/>
    <bx:guide x="246.33981107252396" y="115.52611648148434" angle="0"/>
    <bx:guide x="251.92220246511846" y="115.55305202499505" angle="0"/>
    <bx:guide x="157.7151390364126" y="114.88864195173089" angle="0"/>
    <bx:guide x="335.783772557086" y="114.29605999449528" angle="0"/>
    <bx:guide x="340.5019819287119" y="112.45995377851526" angle="0"/>
    <bx:guide x="124.78419246594454" y="214.5748438562402" angle="0"/>
  </defs>
  <circle style="fill: rgba(216, 216, 216, 0); stroke-width: 28px; stroke: rgb(255, 255, 255);" cx="251.455" cy="272.656" r="124.45"/>
  <path d="M 33.609 95.633 L 41.248 118.733 L 64.51 119.231 L 45.969 134.005 L 52.707 157.413 L 33.609 143.444 L 14.511 157.413 L 21.249 134.005 L 2.708 119.231 L 25.97 118.733 Z" style="fill-rule: evenodd; stroke-linecap: round; fill: rgb(255, 255, 255); stroke-linejoin: round; stroke-width: 20px; stroke: rgb(255, 255, 255);" bx:shape="star 33.609 129.784 32.491 34.151 0.4 5 1@3c3ebca7"/>
  <path d="M 421.728 390.225 L 429.367 413.325 L 452.629 413.823 L 434.088 428.597 L 440.826 452.005 L 421.728 438.036 L 402.63 452.005 L 409.368 428.597 L 390.827 413.823 L 414.089 413.325 Z" style="fill-rule: evenodd; stroke-linecap: round; fill: rgb(255, 255, 255); stroke-linejoin: round; stroke-width: 20px; transform-box: fill-box; transform-origin: 50% 50%; stroke: rgb(255, 255, 255);" transform="matrix(0.965926, 0.258819, -0.258819, 0.965926, 16.773593, 5.381352)" bx:shape="star 421.728 424.376 32.491 34.151 0.4 5 1@ee587f11"/>
  <circle style="fill: rgba(216, 216, 216, 0); stroke-width: 40.4532px; stroke: rgb(255, 255, 255);" transform="matrix(0.75, 0, 0, 0.749462, -242.153442, 337.978424)" cx="427.316" cy="115.578" r="12"/>
  <circle style="fill: rgba(216, 216, 216, 0); stroke-width: 40.4532px; stroke: rgb(255, 255, 255);" transform="matrix(0.541667, 0, 0, 0.541278, 161.101227, 30.492155)" cx="427.316" cy="115.578" r="12"/>
  <circle style="fill: rgba(216, 216, 216, 0); stroke-width: 40.4532px; stroke: rgb(255, 255, 255);" transform="matrix(0.416667, 0, 0, 0.416367, 281.95166, 21.426359)" cx="427.316" cy="115.578" r="12"/>
  <path style="fill: rgba(216, 216, 216, 0); stroke-width: 38px; stroke: rgb(255, 255, 255);" d="M 130.101 267.6 C 130.101 267.6 38.676879535645135 336.77462754558064 44.721 348.955 C 53.206395921946125 366.0551361342897 203.05610390159552 337.3922030306913 274.196 311.929 C 344.1928369288645 286.8749337449631 472.94352395386295 214.82820197104394 468.643 198.658 C 465.50446512910054 186.856939640827 348.791 197.747 348.791 197.747" bx:d="M 130.101 267.6 R 44.721 348.955 R 274.196 311.929 R 468.643 198.658 R 348.791 197.747 1@98cf6427"/>
</svg>